<svg width="424" height="424" viewBox="0 0 424 424" fill="none" xmlns="http://www.w3.org/2000/svg">
<path fill-rule="evenodd" clip-rule="evenodd" d="M312 212C312 267.228 267.228 312 212 312C156.772 312 112 267.228 112 212C112 156.772 156.772 112 212 112C267.228 112 312 156.772 312 212ZM125.97 211.474C125.97 163.782 164.784 124.967 212.477 124.967C260.17 124.967 298.984 163.782 298.984 211.474C298.984 259.167 260.17 297.981 212.477 297.981C164.784 297.981 125.97 259.167 125.97 211.474Z" fill="#F9FCA3"/>
<path fill-rule="evenodd" clip-rule="evenodd" d="M213.369 285.172C213.072 285.183 212.773 285.191 212.474 285.196L212.455 285.177C212.762 285.177 213.069 285.175 213.376 285.171L213.369 285.172Z" fill="#F9FCA3"/>
<path d="M202.707 248.437C202.707 243.039 207.079 238.667 212.477 238.667C217.875 238.667 222.248 243.039 222.248 248.437C222.248 253.836 217.875 258.208 212.477 258.208C207.079 258.208 202.707 253.836 202.707 248.437Z" fill="#F9FCA3"/>
<path fill-rule="evenodd" clip-rule="evenodd" d="M248.816 248.303C248.816 228.004 232.286 211.385 211.897 211.385C191.508 211.385 174.979 194.855 174.979 174.467C174.979 155.751 188.943 140.337 207.012 137.95C208.819 137.816 210.626 137.727 212.455 137.727C253.188 137.727 286.18 170.741 286.18 211.452C286.18 251.855 253.662 284.678 213.376 285.171C233.079 284.396 248.816 268.204 248.816 248.303ZM202.388 173.423C202.388 168.024 206.76 163.652 212.159 163.652C217.557 163.652 221.929 168.024 221.929 173.423C221.929 178.821 217.557 183.193 212.159 183.193C206.76 183.193 202.388 178.821 202.388 173.423Z" fill="#F9FCA3"/>
<path d="M212.455 285.177L212.474 285.196M212.455 285.177C212.762 285.177 213.069 285.175 213.376 285.171M212.455 285.177C212.76 285.177 213.065 285.175 213.369 285.172M213.369 285.172C213.072 285.183 212.773 285.191 212.474 285.196M213.369 285.172L213.376 285.171M212.474 285.196C212.378 285.198 212.283 285.199 212.187 285.199C212.299 285.199 212.477 285.199 212.477 285.199L212.474 285.196ZM213.376 285.171C253.662 284.678 286.18 251.855 286.18 211.452C286.18 170.741 253.188 137.727 212.455 137.727C210.626 137.727 208.819 137.816 207.012 137.95C188.943 140.337 174.979 155.751 174.979 174.467C174.979 194.855 191.508 211.385 211.897 211.385C232.286 211.385 248.816 228.004 248.816 248.303C248.816 268.204 233.079 284.396 213.376 285.171ZM312 212C312 267.228 267.228 312 212 312C156.772 312 112 267.228 112 212C112 156.772 156.772 112 212 112C267.228 112 312 156.772 312 212ZM212.477 124.967C164.784 124.967 125.97 163.782 125.97 211.474C125.97 259.167 164.784 297.981 212.477 297.981C260.17 297.981 298.984 259.167 298.984 211.474C298.984 163.782 260.17 124.967 212.477 124.967ZM208.127 285.021C208.707 285.088 209.31 285.088 209.89 285.11C209.89 285.11 209.89 285.11 209.912 285.11C210.291 285.11 210.67 285.155 211.049 285.177C207.614 285.11 204.246 284.842 200.967 284.307C203.309 284.664 205.696 284.887 208.105 285.021H208.127ZM202.707 248.437C202.707 243.039 207.079 238.667 212.477 238.667C217.875 238.667 222.248 243.039 222.248 248.437C222.248 253.836 217.875 258.208 212.477 258.208C207.079 258.208 202.707 253.836 202.707 248.437ZM212.159 163.652C206.76 163.652 202.388 168.024 202.388 173.423C202.388 178.821 206.76 183.193 212.159 183.193C217.557 183.193 221.929 178.821 221.929 173.423C221.929 168.024 217.557 163.652 212.159 163.652Z" stroke="#F9FCA3" stroke-linecap="round" stroke-linejoin="round"/>
<path d="M224.454 122.673C223.124 88.9436 219.962 55.3113 214.982 21.925L212.001 2L209.007 21.925C204.027 55.3113 200.865 88.9436 199.535 122.673C207.8 121.503 216.189 121.503 224.454 122.673V122.673Z" stroke="#F9FCA3" stroke-width="3" stroke-linecap="round" stroke-linejoin="round"/>
<path d="M199.548 301.327C200.877 335.056 204.039 368.689 209.02 402.075L212.001 422L214.995 402.075C219.976 368.689 223.138 335.056 224.467 301.327C216.202 302.497 207.813 302.497 199.548 301.327V301.327Z" stroke="#F9FCA3" stroke-width="3" stroke-linecap="round" stroke-linejoin="round"/>
<path d="M301.328 224.453C335.058 223.136 368.691 219.974 402.076 214.981L422.001 212L402.076 209.019C368.691 204.025 335.058 200.863 301.328 199.547C302.498 207.808 302.498 216.192 301.328 224.453V224.453Z" stroke="#F9FCA3" stroke-width="3" stroke-linecap="round" stroke-linejoin="round"/>
<path d="M122.673 199.561C88.9427 200.877 55.3097 204.039 21.9251 209.033L2 212.014L21.9251 214.995C55.3097 219.988 88.9427 223.15 122.673 224.467C121.503 216.206 121.503 207.821 122.673 199.561V199.561Z" stroke="#F9FCA3" stroke-width="3" stroke-linecap="round" stroke-linejoin="round"/>
<path d="M175.685 95.495C162.857 89.3394 150.546 75.6216 147.784 62.3426C145.023 49.0635 140.945 29.6805 122.685 30.2999C122.685 30.2999 138.248 40.4431 137.706 57.671C137.332 69.6596 132.092 84.4227 141.577 94.5788C151.062 104.735 159.992 114.207 159.992 125.331C160.118 130.85 158.782 136.303 156.121 141.139H156.186C168.715 131.261 183.651 124.9 199.455 122.711C199.455 122.711 191.945 103.29 175.685 95.495Z" stroke="#F9FCA3" stroke-width="3" stroke-linecap="round" stroke-linejoin="round"/>
<path d="M248.318 95.495C261.145 89.3394 273.456 75.6216 276.218 62.3426C278.979 49.0635 283.057 29.6805 301.318 30.2999C301.318 30.2999 285.754 40.4431 286.296 57.671C286.671 69.6596 291.91 84.4227 282.425 94.5788C272.94 104.735 264.01 114.207 264.01 125.331C263.885 130.85 265.22 136.303 267.881 141.139H267.817C255.287 131.261 240.351 124.9 224.547 122.711C224.547 122.711 232.058 103.29 248.318 95.495Z" stroke="#F9FCA3" stroke-width="3" stroke-linecap="round" stroke-linejoin="round"/>
<path d="M248.305 328.363C261.21 334.519 273.443 348.236 276.218 361.515C278.992 374.794 283.057 394.178 301.318 393.571C301.318 393.571 285.742 383.415 286.284 366.187C286.658 354.198 291.897 339.435 282.412 329.292C272.927 319.149 264.01 309.651 264.01 298.527C263.883 293.012 265.218 287.562 267.881 282.731H267.804C255.281 292.612 240.348 298.974 224.547 301.16C224.547 301.16 232.058 320.581 248.305 328.363Z" stroke="#F9FCA3" stroke-width="3" stroke-linecap="round" stroke-linejoin="round"/>
<path d="M175.685 328.363C162.78 334.519 150.546 348.236 147.772 361.515C144.997 374.794 140.932 394.178 122.672 393.571C122.672 393.571 138.248 383.415 137.706 366.187C137.332 354.198 132.092 339.435 141.577 329.292C151.062 319.149 159.98 309.651 159.98 298.527C160.107 293.012 158.771 287.562 156.108 282.731H156.186C168.709 292.612 183.641 298.974 199.443 301.16C199.443 301.16 191.932 320.581 175.685 328.363Z" stroke="#F9FCA3" stroke-width="3" stroke-linecap="round" stroke-linejoin="round"/>
<path d="M157.644 140.043C132.855 117.133 106.835 95.5932 79.6985 75.5189L63.5029 63.5432L75.4786 79.7775C95.5529 106.914 117.093 132.934 140.003 157.723C145.01 151.046 150.941 145.115 157.618 140.108L157.644 140.043Z" stroke="#F9FCA3" stroke-width="3" stroke-linecap="round" stroke-linejoin="round"/>
<path d="M266.359 283.972C291.148 306.882 317.168 328.422 344.305 348.496L360.5 360.485L348.524 344.328C328.447 317.198 306.907 291.183 284 266.396C281.494 269.725 278.76 272.877 275.819 275.829C272.854 278.755 269.693 281.475 266.359 283.972V283.972Z" stroke="#F9FCA3" stroke-width="3" stroke-linecap="round" stroke-linejoin="round"/>
<path d="M283.971 157.644C306.881 132.856 328.421 106.835 348.495 79.6992L360.483 63.5037L344.275 75.4793C317.144 95.5544 291.128 117.094 266.343 140.003C269.668 142.51 272.815 145.244 275.763 148.185C278.711 151.148 281.453 154.309 283.971 157.644Z" stroke="#F9FCA3" stroke-width="3" stroke-linecap="round" stroke-linejoin="round"/>
<path d="M140.032 266.367C117.119 291.148 95.579 317.165 75.5081 344.299L63.5195 360.508L79.728 348.519C106.863 328.448 132.879 306.908 157.66 283.995C151 278.969 145.071 273.04 140.045 266.38L140.032 266.367Z" stroke="#F9FCA3" stroke-width="3" stroke-linecap="round" stroke-linejoin="round"/>
<path d="M328.428 175.62C334.584 162.715 348.302 150.482 361.594 147.72C374.886 144.958 394.243 140.867 393.636 122.607C393.636 122.607 383.48 138.183 366.252 137.641C354.264 137.267 339.501 132.028 329.357 141.513C319.214 150.998 309.729 159.928 298.605 159.928C293.086 160.056 287.632 158.72 282.797 156.056C292.681 168.583 299.042 183.52 301.225 199.326C301.225 199.326 320.647 191.88 328.428 175.62Z" stroke="#F9FCA3" stroke-width="3" stroke-linecap="round" stroke-linejoin="round"/>
<path d="M328.428 248.251C334.584 261.078 348.302 273.389 361.594 276.151C374.886 278.913 394.243 282.991 393.636 301.251C393.636 301.251 383.48 285.688 366.252 286.217C354.264 286.591 339.501 291.83 329.357 282.345C319.214 272.86 309.729 263.93 298.605 263.93C293.086 263.802 287.632 265.138 282.797 267.802V267.737C292.681 255.211 299.042 240.274 301.225 224.467C301.225 224.467 320.647 232.055 328.428 248.251Z" stroke="#F9FCA3" stroke-width="3" stroke-linecap="round" stroke-linejoin="round"/>
<path d="M95.5651 248.238C89.4224 261.078 75.6917 273.377 62.4126 276.151C49.1335 278.926 29.7505 282.991 30.37 301.251C30.37 301.251 40.5131 285.675 57.7411 286.217C69.7426 286.591 84.4928 291.83 94.6489 282.345C104.805 272.86 114.277 263.93 125.401 263.93C130.92 263.801 136.375 265.137 141.209 267.802V267.724C131.336 255.196 124.976 240.266 122.781 224.467C122.781 224.467 103.36 232.055 95.5651 248.238Z" stroke="#F9FCA3" stroke-width="3" stroke-linecap="round" stroke-linejoin="round"/>
<path d="M95.5651 175.62C89.4224 162.715 75.6917 150.482 62.4126 147.707C49.1335 144.933 29.7505 140.867 30.37 122.607C30.37 122.607 40.5131 138.17 57.7411 137.641C69.7426 137.267 84.4928 132.028 94.6489 141.513C104.805 150.998 114.277 159.915 125.401 159.915C130.92 160.04 136.373 158.705 141.209 156.044V156.121C131.334 168.648 124.973 183.578 122.781 199.378C122.781 199.378 103.36 191.867 95.5651 175.62Z" stroke="#F9FCA3" stroke-width="3" stroke-linecap="round" stroke-linejoin="round"/>
</svg>
